<svg xmlns="http://www.w3.org/2000/svg" width="240" height="1122.52" viewBox="0 -841.89 180 841.89"><path fill="none" stroke="#000" stroke-dasharray="2.98883 1.99255" stroke-miterlimit="10" d="M142.93-1539.79v697.9"/><path fill="#fff" d="M147.88-1490.93a4.95 4.95 0 1 0-9.91 0 4.95 4.95 0 0 0 9.9 0"/><path fill="none" stroke="#000" stroke-miterlimit="10" stroke-width=".4" d="M147.88-1490.93a4.95 4.95 0 1 0-9.91 0 4.95 4.95 0 0 0 9.9 0Z"/><path fill="#fff" d="M147.88-1454.18a4.95 4.95 0 1 0-9.91 0 4.95 4.95 0 0 0 9.9 0"/><path fill="none" stroke="#000" stroke-miterlimit="10" stroke-width=".4" d="M147.88-1454.18a4.95 4.95 0 1 0-9.91 0 4.95 4.95 0 0 0 9.9 0Z"/><path fill="#fff" d="M147.88-1417.43a4.95 4.95 0 1 0-9.9 0 4.95 4.95 0 0 0 9.9 0"/><path fill="none" stroke="#000" stroke-miterlimit="10" stroke-width=".4" d="M147.88-1417.43a4.95 4.95 0 1 0-9.9 0 4.95 4.95 0 0 0 9.9 0Z"/><path fill="#fff" d="M147.88-1380.68a4.95 4.95 0 1 0-9.9 0 4.95 4.95 0 0 0 9.9 0"/><path fill="none" stroke="#000" stroke-miterlimit="10" stroke-width=".4" d="M147.88-1380.68a4.95 4.95 0 1 0-9.9 0 4.95 4.95 0 0 0 9.9 0Z"/><path fill="#fff" d="M147.88-1343.93a4.95 4.95 0 1 0-9.9 0 4.95 4.95 0 0 0 9.9 0"/><path fill="none" stroke="#000" stroke-miterlimit="10" stroke-width=".4" d="M147.88-1343.93a4.95 4.95 0 1 0-9.9 0 4.95 4.95 0 0 0 9.9 0Z"/><path fill="#fff" d="M147.88-1307.18a4.95 4.95 0 1 0-9.9 0 4.95 4.95 0 0 0 9.9 0"/><path fill="none" stroke="#000" stroke-miterlimit="10" stroke-width=".4" d="M147.88-1307.18a4.95 4.95 0 1 0-9.9 0 4.95 4.95 0 0 0 9.9 0Z"/><path fill="#fff" d="M147.88-1270.43a4.95 4.95 0 1 0-9.9 0 4.95 4.95 0 0 0 9.9 0"/><path fill="none" stroke="#000" stroke-miterlimit="10" stroke-width=".4" d="M147.88-1270.43a4.95 4.95 0 1 0-9.9 0 4.95 4.95 0 0 0 9.9 0Z"/><path fill="#fff" d="M147.88-1233.68a4.95 4.95 0 1 0-9.9 0 4.95 4.95 0 0 0 9.9 0"/><path fill="none" stroke="#000" stroke-miterlimit="10" stroke-width=".4" d="M147.88-1233.68a4.95 4.95 0 1 0-9.9 0 4.95 4.95 0 0 0 9.9 0Z"/><path fill="#fff" d="M147.88-1196.93a4.95 4.95 0 1 0-9.91 0 4.95 4.95 0 0 0 9.9 0"/><path fill="none" stroke="#000" stroke-miterlimit="10" stroke-width=".4" d="M147.88-1196.93a4.95 4.95 0 1 0-9.91 0 4.95 4.95 0 0 0 9.9 0Z"/><path fill="#fff" d="M147.88-1160.18a4.95 4.95 0 1 0-9.91 0 4.95 4.95 0 0 0 9.9 0"/><path fill="none" stroke="#000" stroke-miterlimit="10" stroke-width=".4" d="M147.88-1160.18a4.95 4.95 0 1 0-9.91 0 4.95 4.95 0 0 0 9.9 0Z"/><path fill="#fff" d="M147.88-1123.43a4.95 4.95 0 1 0-9.91 0 4.95 4.95 0 0 0 9.9 0"/><path fill="none" stroke="#000" stroke-miterlimit="10" stroke-width=".4" d="M147.88-1123.43a4.95 4.95 0 1 0-9.91 0 4.95 4.95 0 0 0 9.9 0Z"/><path fill="#fff" d="M147.88-1086.68a4.95 4.95 0 1 0-9.9 0 4.95 4.95 0 0 0 9.9 0"/><path fill="none" stroke="#000" stroke-miterlimit="10" stroke-width=".4" d="M147.88-1086.68a4.95 4.95 0 1 0-9.9 0 4.95 4.95 0 0 0 9.9 0Z"/><path fill="#fff" d="M147.88-1049.93a4.95 4.95 0 1 0-9.9 0 4.95 4.95 0 0 0 9.9 0"/><path fill="none" stroke="#000" stroke-miterlimit="10" stroke-width=".4" d="M147.88-1049.93a4.95 4.95 0 1 0-9.9 0 4.95 4.95 0 0 0 9.9 0Z"/><path fill="#fff" d="M147.88-1013.18a4.95 4.95 0 1 0-9.9 0 4.95 4.95 0 0 0 9.9 0"/><path fill="none" stroke="#000" stroke-miterlimit="10" stroke-width=".4" d="M147.88-1013.18a4.95 4.95 0 1 0-9.9 0 4.95 4.95 0 0 0 9.9 0Z"/><path fill="#fff" d="M147.88-976.43a4.95 4.95 0 1 0-9.9 0 4.95 4.95 0 0 0 9.9 0"/><path fill="none" stroke="#000" stroke-miterlimit="10" stroke-width=".4" d="M147.88-976.43a4.95 4.95 0 1 0-9.9 0 4.95 4.95 0 0 0 9.9 0Z"/><path fill="#fff" d="M147.88-939.68a4.95 4.95 0 1 0-9.9 0 4.95 4.95 0 0 0 9.9 0"/><path fill="none" stroke="#000" stroke-miterlimit="10" stroke-width=".4" d="M147.88-939.68a4.95 4.95 0 1 0-9.9 0 4.95 4.95 0 0 0 9.9 0Z"/><path fill="#fff" d="M147.88-902.93a4.95 4.95 0 1 0-9.9 0 4.95 4.95 0 0 0 9.9 0"/><path fill="none" stroke="#000" stroke-miterlimit="10" stroke-width=".4" d="M147.88-902.93a4.95 4.95 0 1 0-9.9 0 4.95 4.95 0 0 0 9.9 0Z"/><path d="M123.56-1064.65q.39.75 1.04 1.88.66 1.1 1.27 2.6v-2.74q0-1.15-1-1.14.25-.55.48-1.31.94.53 1.11.95.15.41.15 1.12v2.9q.05 1.41-.13 1.52.6 2.3.88 3.5-.45.22-.88.7a14 14 0 0 0-.74-3.82h-1.14q-.44 0-1.13.06v-1.26q.66.06 1.1.06h.73q-.3-.82-.94-1.97a8 8 0 0 0-1.55-1.96q.27-.33.75-1.1m4.89 7.86q-.5 0-1 .05v-1.2q.6.05 1.04.05h.92v-2.94h-1.22q-.45 0-1.18.1v-1.25q.47.06 1.22.06h1.18v-3.06h-1.1q-.43 0-1 .05v-1.2q.52.05 1.05.06h1.44q.35 0 .83-.06v1.15h-.52v8.24a7 7 0 0 0-.83-.05zm-5.29-9.07h-1v9.23h1.05v1.2a7.82 7.82 0 0 0-1.79 0v-5.18q-.4.15-.83.43-.15-.5-.3-1.2.25-.22 1.13-.54v-5.14q.56.06.96.06l.78-.06zm.53 8.14q.74.32 1.79.93-.17.7-.26 1.2-.7-.6-1.75-.93.13-.55.22-1.2m-.09-8.3q.7-.7 1.53-1.42.17.6.44 1.04a8 8 0 0 0-1.49 1.36zm.3 4.86q-.78.75-1.17 1.42a7 7 0 0 0-.53-.87q.26-.45 1.14-1.48.3.43.57.93M122.73-1126.18h-1.31q-.61 0-1.1.06v-1.2q.57.05.97.05h1.44q0-.92-.05-1.7h.83q-.04.88-.04 1.37v.33h5.63q.83-.06 1.05.71.21.76.35 1.7-.61.03-1.1.43a7 7 0 0 0-.08-1.37q-.09-.38-.57-.38h-5.28v1.15q0 1.04.04 1.9h-.83q.05-.87.05-1.9zm2 8.46q0 1.2.05 1.7h-.79q.05-.61.05-1.64v-1.42h-1.44v.82q0 .65.04 1.63h-.79q.05-.76.05-1.52v-.93q-.89 0-1.53.05v-1.2q1.14.05 1.53.06v-.82l-.05-1.48h.79q-.04 1.26-.04 1.7v.6h1.44v-.99l-.05-1.63h.79l-.04 1.42zm2.28-1.36v.65q-.01.44.04 1.8h-.74q.03-.65.04-1.47v-.98q-.75 0-1.22.05v-1.2q.83.05 1.22.06v-.99q0-.65-.04-1.36h.74q-.04.71-.04 1.36v.99h1.7a61 61 0 0 1-.26-2.51q.43.1.74.1l.44 3.93q.16 1.53.3 2.3l-.92.32q0-.76-.21-3.05zm-2.36-5.24a44 44 0 0 1 1.83-1.15q.13.54.4 1.04-.97.48-1.8 1.04a6 6 0 0 0-.43-.93M121.9-1184.37q-.66 0-1.44.16.03-.71.13-1.47.26.15.85.22.59.04 1.68 0l-.26-1.86q-.18-.93-.4-1.86l.83-.21q.1.92.22 1.9l.3 1.97q.7 0 1.23-.1l-.3-2.14q-.18-1.1-.44-2.07l.83-.16.3 2.07.31 2.13a4 4 0 0 0 1.62-.55q-.31-.49-.7-.95-.4-.47-.88-.85.53-.81.7-1.25.26.7.6 1.12l1.02 1.33q.87-.65 1.11-1.17.24-.53.02-.74-.22-.22-.91-.38.3-.49.48-1.15 1.92.93 1.55 2.02a6 6 0 0 1-1.73 2.3q.48.75.9 1.5.41.73.85 1.83-.44.27-.79.81-.3-1.08-.65-1.85t-1-1.75q-.89.5-2.06.71.22 1.64.4 2.3l-.84.16q0-.66-.26-2.24-.7.1-1.18.1.26 1.48.4 2.03l-.83.22q0-.56-.27-2.13zm-1 3.27q.38.55 1.1 1.07.72.5 1.78 1.39l-.05-1.8a9 9 0 0 0-1.44-.88q.3-.54.48-1.2.45.55 1.18 1.12.75.57 2.53 2-.09-1.49-.17-2.63.43.16.74.17a27 27 0 0 0 .4 3.82q-.44.05-.92.33-.14-.66-.7-1.2-.58-.55-1.44-1.15.08 1.8.35 2.3-.49.16-.96.48a4.4 4.4 0 0 0-1.3-1.36q-.9-.66-2.07-1.2.3-.55.48-1.26m6.98-1.36q.48.04.74 0 .22 1.36.44 2.45.21 1.1.48 2.02-.48.16-.96.6-.14-1.53-.24-2.34a72 72 0 0 0-.46-2.73m-5.5-4.97q-.49.38-1.14 1.04l-.35-.87 1.05-1.1q.17.55.44.93M127.14-1241.31a9 9 0 0 0-1.88-2.43 4 4 0 0 0-2.4-.85v3.72h7.42v1.25a12 12 0 0 0-1.48-.1h-4.85q-.88-.01-1.83.05v-4.97q-1.19 0-1.75.05.04-.87.04-1.36.57.27 1.7.27v-5.13q.92.1 1.84.11h5.33q.65 0 .8.66.15.65.29 1.8-.44.15-.96.76 0-1.3-.07-1.7-.07-.37-.41-.37h-6.07v3.93q.78 0 1.53.16l1.07-1.75q.75-1.25 1.2-1.8.4.6.7.93-.88.93-2.19 2.95 1.35.97 2.54 2.56-.45.66-.57 1.26M121.64-1312.6q-.06.97-.05 1.69v3.22q.6.38 1.36.93h5.45q.87 0 1.97-.06v1.2a37 37 0 0 0-1.97-.05h-4.28a17 17 0 0 1 3.45 4.58q-.53.44-.74.82-.39-1.1-1.68-2.9a14 14 0 0 0-3.56-3.32v3.6q0 1.04.05 2.18h-.88q.05-1.64.05-2.5v-7.65q-.01-.7-.05-1.74zm5.8 1.14q-1.05 1.05-3.23 3.71a4 4 0 0 0-.61-.7 89 89 0 0 1 3.1-4q.35.55.74 1M120.72-1373.1q.6.06 1.79.06 1.14 0 1.83-.05v6.33a25 25 0 0 0-3.62 0zm5.85 7.92q.04-.98.04-2.18v-3.99h-.87v3.6q0 .93.04 1.75h-.74q.05-.81.05-1.74v-4.1q-.01-1.14-.05-1.96h.74q-.04.7-.04 1.47h.87q0-.99-.04-1.85h.79q-.06.81-.05 1.85h1.66q.92-.05 1.14.6t.35 1.7q-.45.1-1 .43-.01-1.25-.16-1.53-.15-.27-.63-.21h-1.36v3.98q0 1.2.05 2.18zm3.8 1.75q-1.18-.06-1.97-.06h-2.62q.44.5 1 1.2-.43.33-.73.77a10 10 0 0 0-1.49-1.91 11 11 0 0 0-1.75-1.42q.3-.45.57-1.04l1.53 1.42h3.5q.77 0 1.96-.05zm-9.48-2.18a36 36 0 0 1 2.62 2.89q-.35.32-.65.76a11 11 0 0 0-2.53-2.67q.3-.44.56-.98m2.75-6.44h-.83v4.25h.83zm-1.48 0h-.79v4.25h.79zm5.41 4.69a34 34 0 0 1 1.53-1.31q.18.38.53.98-.71.33-1.53 1.15-.26-.5-.53-.82M127.05-1433.09q1.05.05 1.7.06.66 0 1.75-.06v1.1h-.74v5.45h.74v1.15a29 29 0 0 0-3.45 0zm-1.4 6.28a26 26 0 0 1 1.36 3.27q-.44.22-.83.82a13 13 0 0 0-1.4-3.79 6 6 0 0 0-2.05-2.1q.26-.66.39-1.2l.26.27q1.75-2.02 2.32-6.22.39.48.91.76-.35 1.7-1.09 3.5h.66q-.06.6-.05 1.14v2.35q0 .54.05 1.2zm-4.97.38q.25.38.7.66v-1.8q0-1.15-.05-1.86h.74q-.04.6-.04 1.53v.82q.7-.34 1.35-.71.17.54.35 1.03-.4.11-1.7.71v.71q.91.72 1.66 1.42-.3.39-.57.93-.53-.66-1.33-1.25a7 7 0 0 0-1.64-.93q.34-.6.53-1.26m2.44-3.93q-.22.55-.4 1.1-.43-.55-1.15-1.02a9 9 0 0 0-1.38-.73q.22-.55.4-1.26.38.5.78.71v-2.24l-.04-1.8h.74q-.04 1.05-.04 1.97.91-.6 1.35-.82.17.6.35 1.14-.95.33-1.7.66v1.47zm5.9-1.64h-1.27v5.46H129zm-3.67.93q-.7 1.26-1.4 2.08.78.87 1.44 1.8.04-.44.04-1.91 0-1.49-.08-1.97M125.26-1488.6q0-.77-.04-1.59h.78q-.09.76-.09 2.07h1.14q0-1.08-.04-1.74h.78q-.04.65-.04 1.74h1.35q.53-1.9.48-4.44a37 37 0 0 0-.3-4.4q.47.22 1.04.28.05 2.11.03 3.7a37 37 0 0 1-.16 2.9q-.14 1.31-.45 2.32a9 9 0 0 1-.99 2.05q.91.27 1.8.7-.32.5-.4.93a8 8 0 0 0-1.77-.65q-.77-.16-1.77-.27.14-.55.18-1.1.39.16 1.18.28.56-.78.78-1.37h-2.84q0 1.96.1 2.79h-.8l.05-1.59zm-4.45-1.04a39 39 0 0 0 3.75 0v4.64a31 31 0 0 0-3.75 0zm0-5.19q-.01-.71-.05-1.7h.79q-.05 1-.05 2.8l1.31.21v-2.46q.66.12 2.01.11 1.36 0 2.14-.1v1.03h-3.49v3.17h3.84v.98q-.87-.05-2.36-.05-1.48-.01-2.14.05v-1.75l-1.3-.22q-.02 1.32.04 2.35h-.79q.05-1.04.05-1.8zm3.49.76q.61.1 1.16.14.54.02 1.18.2.62.15 1.33.7.7.55 1.4 1.8-.45.33-.66.88a6 6 0 0 0-.96-1.61 3 3 0 0 0-2.23-1.01q-.66 0-1.35.05.09-.49.13-1.14m-.4 5.46h-.87v2.57h.88zm-1.57 0h-.83v2.57h.83zm4.98-5.67q.6-1.2 1.14-1.91.26.43.6.65-.38.5-1.13 1.86a2 2 0 0 0-.6-.6M104.32-899.1a6 6 0 0 0-.19-.85.7.7 0 0 1 .1-.62q.21-.28.33.06t.29 1.42q.74 0 1.31.04l-.1-.66a.6.6 0 0 1 .14-.55q.2-.22.29.29.07.5.16.92.7.03 1.4.04-.08-.98-.17-1.43a1.4 1.4 0 0 1 0-.7q.08-.25.33-.47.24-.23.23.22a17 17 0 0 0 .22 3.73l.13.72q.04.22-.03.45a1 1 0 0 1-.26.41q-.2.18-.19-.2.03-.4-.04-.92l-.18-1.4h-1.36q0 .5.05.78a1 1 0 0 1-.15.57q-.19.3-.22-.1l-.2-1.25h-1.32q.05.36 0 .62-.04.24-.16.49.6.4.88.8.27.38-.25.06-.52-.33-1.09-.53a1.6 1.6 0 0 0-.9-.13q-.33.08-.26-.16.05-.25.22-.5t.35-.1q.19.15.88.48 0-.45-.12-1.03h-2.13q-.67 0-1.05.2-.4.22-.35-.08t.2-.61q.16-.34.36-.23.17.1.67.15.49.03 2.18.08m.61 4.44-.2-.82q-.05-.05-.33-.08-.3-.05-.5 0-.2.03 0-.41.2-.45.37-.33.17.13.74.28l1.11.33q.53.16.94.33.24-.29.54-.43.28-.15.59-.06.31.07-.04.39l-.55.47a3.6 3.6 0 0 1 1.43 1.72q.24.58-.3-.14-.56-.73-1.5-1.25l-.54.53q-.2.2-.34.16-.14-.03-.93-.16.29.93.41 1.21.12.26 0 .5-.12.21-.3.34-.2.12-.19-.2 0-.38-.33-1.93-.82-.17-1.78-.3a6 6 0 0 0-1.3-.11q-.31.03-.57.1-.25.06 0-.5.24-.55.35-.5l.43.16q.33.12 1.03.29zm.37.08.96.25q.18.03.25-.07l.35-.5a9 9 0 0 0-1.85-.58q.12.45.29.9m-3.32-12.71q-.09-1.24-.31-1.54t-.1-.64.37-.63q.25-.32.39-.02.14.29.4.6.27.3 1.18 1.02.9.7 2.37 2.19.16-.25.13-.76l-.17-1.33a4 4 0 0 0-.28-1.1q-.18-.3-.02-.69.13-.38.45-.77.3-.4.61 0a3 3 0 0 0 1.25.75q.61-.65.58.02-.05.69.02 1.56.06.88.14 1.75.33.04.41.16t-.12.2-.6.13-1 .12q-.63.08-1.1.25.36.36.95 1.19.6.82.89 1.66.27.83-.25.02-.54-.82-1.31-1.77-.78-.93-2.05-2.05a4 4 0 0 1-.9.99q-.54.4-.5-.04.05-.45.33-.82a.9.9 0 0 1 .74-.37 13 13 0 0 0-1.8-1.34 1 1 0 0 0-.35-.08q-.2-.02-.1.31.06.33.16.62.07.29-.2.57 1.05 1.02 1.37 1.72.3.7-.15.17a9 9 0 0 0-1.1-1.1q-.67-.55-1-.69-.37-.15-.66-.16-.32-.03-.13-.37.18-.36.35-.47.16-.13.41.14.24.26.7.6m4.84.53q.97-.09 1.8-.12l-.29-2.67a8 8 0 0 0-1.14-.16q-.59-.05-.66.14-.08.18 0 .78zM107.82-915.13q.16-.25.55-.23t.55.3q.16.3.16.42t-.16.4-.57.3q-.4.03-.55-.24a1 1 0 0 1-.14-.46q0-.25.16-.5m-2.47 0q.15-.3.57-.29.43 0 .57.33.14.32.14.45 0 .2-.18.46-.18.27-.57.25t-.53-.3a1 1 0 0 1-.14-.46q0-.15.14-.44"/><path fill="none" stroke="#000" stroke-miterlimit="10" stroke-width=".5" d="M110.67-923.09v-84"/><path d="m103.74-1045.27.08.67q.04.3-.08.58-.13.26-.24-.25a29 29 0 0 0-.64-2.17 1 1 0 0 1-.02-.68q.12-.29.29-.04t.49 1.35q.25-.15.39-.14t.55.06q-.13-.52-.16-.78a.5.5 0 0 1 .14-.45q.18-.2.27-.04.08.16.14.53l.14.74q.45.04.95.04l-.19-.82q-.06-.24.15-.47t.26.08l.23 1.21a13 13 0 0 1 1.02.04l-.18-1.51a.8.8 0 0 1 .29-.78q.34-.3.3.28-.04.57 0 1.2a17 17 0 0 0 .25 2.04q.08.41 0 .82 1.14.05 1.5.2.33.16-.2.42-.57.24-.97.12a6 6 0 0 0-1.13-.18q-.72-.07-2.13-.13-1.42-.05-1.66.1.9.74 1.19 1.24.28.48-.15.1-.43-.4-1.12-.82-.7-.44-1.3-.72-.6-.29-1-.39a1.3 1.3 0 0 0-.64-.04q-.22.06-.08-.27t.33-.53q.18-.21.33-.06.14.15.55.37.4.22 1.6.92.38-.37.74-.37t1.15.02l2.7.02q-.12-.82-.28-1.56h-.99q.09.54.06.78a1 1 0 0 1-.16.46q-.15.2-.19-.21-.04-.4-.16-1.03h-.94l.04.7a1 1 0 0 1-.14.37q-.15.2-.19-.1t-.2-.97q-.5 0-.99.05m1.35 3.32q-.52-.54.74.3 1.28.84 2.03 1.13.75.3-.08.6-.84.3-.86.02-.02-.3-.66-.9zm-2.21 1.76q-.61.5-.5-.1.13-.6.38-.92.24-.34.65-.25.4.08.23.43-.2.35-.76.84m-1.1-4.84q-.34.24-.42.13-.08-.13.08-.64.16-.52.48-.6.3-.08.49.05.18.12-.08.47-.28.35-.56.6m.36-9.27q-.08-.57-.16-.88a.7.7 0 0 1 .12-.6q.2-.29.3.25.12.54.23 1.23l1.11.04q0-.25-.08-.61-.99-.87-1.54-1.25-.55-.4-.86-.29-.3.1-.2-.22.1-.34.32-.64.23-.3.37 0 .15.3 1.79 1.7a66 66 0 0 0-.33-2.32q-.09-.43.1-.75.18-.33.33-.27t.18 1.25q.05 1.18.2 2.46.75.82 1.32 1.48a10 10 0 0 0-.43-2.5 1 1 0 0 1 .12-.74q.23-.37.35.39t.29 2.35q.25-.33.37-.22l.16.14q.04.05.41.29-.16-1.24-.26-1.44t0-.47q.1-.26.3-.53t.37-.1q.16.15.53.22l.93.15q.54.08.86.39.3.3.47.61.16.3-.2.39-.38.08-.76.57-.4.5-.17-.2t.08-.86a1 1 0 0 0-.53-.29 3 3 0 0 0-.86-.1q-.47.01-.55.22t.02.82.3.89q.22.26.1.4a1 1 0 0 1-.28.23q-.19.09-.29-.12t-.39-.43q-.29-.23-.4-.23-.18 0-.23.1l-.15.27a9 9 0 0 1 2 3.2q.26.78-.3-.12-.55-.9-1.02-1.54a42 42 0 0 0-2.11-2.44q.28 2.04.43 2.66t.1.97-.2.6q-.17.23-.19-.23-.01-.48-.12-1.27l-.27-2.07h-1.1q.08.4.1.75.01.35-.19.72-.2.38-.2 0 0-.4-.16-1.47-1.28 0-1.58.16t-.23-.19.19-.59q.1-.25.28-.12.19.12 1.21.2m2.95-12.47q-.15-.53-.3-.92a.7.7 0 0 1 .1-.7q.25-.3.39.4.14.68.14 1.22 1.18.05 2.34.05l-.23-1.73q-.06-.49.17-.84.22-.34.37-.24.14.09.08.6-.06.49-.02 1.3a14 14 0 0 0 .5 3.06q.15.55-.11.94-.27.39-.3-.06-.06-.45-.17-.94-1.08 0-1.87.04-.8.03-1.1.24t-.27-.1q.03-.3.16-.55.12-.25.45-.17.33.09 2.54.09l-.16-1.15q-3.5 0-4.12.04-.64.03-.64.24l.02.58q.02.41-.14.67-.17.27-.2-.24-.05-.52-.27-1.5a12 12 0 0 0-.35-1.31.7.7 0 0 1 .08-.66q.2-.32.37.02.17.36.41 1.87.4-.45.68-.37.26.09 1.45.12m-1.02 4.23q.12-.5.45-.27.32.23.68.29.35.06 1.17.12t1.1.06q.25 0 .1-.22l-.53-.8q-.39-.58.2-.08.6.48.97.82.37.32.8.55.43.22-.02.43t-.7.06a2 2 0 0 0-.67-.22q-.45-.09-1.21-.13l-1.32-.04q-.57 0-.36.41l.32.68q.12.26-.04.61t-.24-.04a8 8 0 0 0-.27-.9 2 2 0 0 0-.39-.68q-.2-.15-.04-.65m-2.54.65q-.05-.44.12-.86.16-.41.64-.37.46.05.26.41-.2.37-.61.82t-.41 0m3.15-13.16q.29-.34.44-.12.13.2.45.45.3.24.3.08a6 6 0 0 0-.28-1.54.6.6 0 0 1 0-.51q.11-.25.37-.6.25-.34.4-.16t.56.29l1.19.26q.8.16 1.19.45t.6.64-.13.41-.74.66-.22-.05.14-.88q-.05-.24-.45-.4a7 7 0 0 0-1.31-.33q-.9-.17-1.05.04-.15.2-.02 1.04.12.85.39 1.3t-.08.49q-.36.04-.62-.41-.27-.45-1.04-.62.24 1.8.34 2.36.1.54-.22 1.02-.33.47-.33-.14 0-.66-.06-1.46a67 67 0 0 0-.47-4.24q-.12-.95-.23-1.56-.1-.62.27-1.02.36-.41.35.22-.02.64.02 1.42.03.78.24 2.9m-1.92-1.6q.4-.63.47.16.06.78.27 2.3.45.2.12.33-.33.12-1.07.22-.75.1-1.04.33-.31.23-.27-.06t.08-.5-.12-1.16a4 4 0 0 0-.3-1.17q-.15-.2 0-.53.13-.34.34-.6.2-.26.43.06.22.33 1.09.62m.4 2.46q-.15-1.07-.32-1.97-.7-.12-1-.14t-.4.14 0 .56l.3 1.45q.81 0 1.43-.04M107.82-1083.14q.16-.24.55-.22t.55.3.16.41-.16.41q-.17.3-.57.3-.4.02-.55-.24a1 1 0 0 1-.14-.47q0-.24.16-.49m-2.47 0q.15-.29.57-.28.43 0 .57.32.14.33.14.45 0 .21-.18.47t-.57.24-.53-.3a1 1 0 0 1-.14-.45q0-.16.14-.45"/><path fill="none" stroke="#000" stroke-miterlimit="10" stroke-width=".5" d="M110.67-1091.1v-84"/><path d="M102.14-1211.8q-.08-.57-.16-.88a.7.7 0 0 1 .12-.6q.2-.29.3.25.12.54.23 1.23l1.11.04q0-.25-.08-.61-.99-.87-1.54-1.25-.55-.4-.86-.29-.3.1-.2-.22.1-.34.32-.64.23-.3.37 0 .15.3 1.79 1.7a66 66 0 0 0-.33-2.32q-.09-.43.1-.75.18-.33.33-.27t.18 1.25q.05 1.18.2 2.46.75.81 1.32 1.48a10 10 0 0 0-.43-2.5 1 1 0 0 1 .12-.74q.23-.37.35.39t.29 2.35q.25-.33.37-.22l.16.14q.04.05.41.29-.16-1.24-.26-1.44t0-.47q.1-.26.3-.53t.37-.1q.16.16.53.22l.93.15q.54.08.86.39.3.3.47.61.16.3-.2.39-.38.08-.76.57-.4.5-.17-.2t.08-.86a1 1 0 0 0-.53-.29 3 3 0 0 0-.86-.1q-.47.01-.55.22t.02.82.3.89q.22.26.1.4a1 1 0 0 1-.28.23q-.19.09-.29-.12t-.39-.43q-.29-.24-.4-.23-.18 0-.23.1l-.15.27a9 9 0 0 1 2 3.2q.26.78-.3-.12-.55-.9-1.02-1.54a42 42 0 0 0-2.11-2.44q.28 2.04.43 2.66t.1.97-.2.6q-.17.23-.19-.23-.01-.48-.12-1.27l-.27-2.07h-1.1q.08.4.1.75.01.35-.19.72-.2.38-.2 0 0-.4-.16-1.47-1.28 0-1.58.16t-.23-.18q.08-.36.19-.6.1-.25.28-.12.19.12 1.21.2m2.1-10.83q-.09-.9-.21-1.7a7 7 0 0 0-.2-1.02.6.6 0 0 1 .01-.47q.11-.25.37-.58.27-.33.5-.08.21.25.86.39l1.55.35a4 4 0 0 1 1.4.53q.46.33.65.72t-.22.51q-.4.12-.8.5-.4.36-.2-.07.18-.44.22-.61a.4.4 0 0 0-.08-.35 2 2 0 0 0-.51-.4 4 4 0 0 0-1.07-.38q-.68-.18-1.33-.25-.66-.08-.78.02a.4.4 0 0 0-.15.25q-.02.13.07.72.4-.53.57-.35t.84.55q.68.38 1.46 1.17.76.8 1 1.64t-.16.14a6 6 0 0 0-1.11-1.39 6 6 0 0 0-1.48-1.09 3 3 0 0 0-1.08-.39q.03.38.12.99.28-.37.5-.23.2.15.93.9.75.76 1.03 1.58t-.1.19q-.4-.64-1.05-1.25a4 4 0 0 0-1.27-.86q.12.53.37.92.24.39-.12.4-.38.03-.58-.34a6.53 6.53 0 0 0-1.78-1.7q-.43-.28-.43-.06 0 .2.12.61.13.4.25.74t-.15.74q-.27.4-.26-.08 0-.54-.17-1.27-.16-.74-.39-.99a.5.5 0 0 1-.1-.55q.13-.32.33-.56t.33.13q.12.36.96 1.1t1.33 1.23m-.62 2.38a4 4 0 0 1-.23-.78q-.02-.2.1-.3.12-.11.3.1.15.2.36.98h1.64q-.74-1.4-.51-1.23.23.15 1.02 1.3.8 1.12.99 1.29.18.15 0 .47-.18.3-.37.4t-.23-.28a5 5 0 0 0-.65-1.5h-1.77q.13.7 0 .97-.12.26-.18.04l-.35-1q-.45-.02-1.33.03-.88.04-1.25.3-.37.23-.29-.15.08-.4.23-.68.14-.29.39-.14.23.14 2.13.18m1.06-12.3q.29-.34.44-.12.13.2.45.45.3.24.3.08a6 6 0 0 0-.28-1.54.6.6 0 0 1 0-.51q.11-.25.37-.6.25-.34.4-.16t.56.29l1.19.26q.8.16 1.19.45t.6.64-.13.41-.74.66-.22-.05.14-.88q-.05-.24-.45-.4a7 7 0 0 0-1.31-.33q-.9-.17-1.05.04-.15.2-.02 1.04.12.84.39 1.3.27.45-.08.49t-.62-.41-1.04-.62q.24 1.8.34 2.36.1.54-.22 1.02-.33.47-.33-.14 0-.65-.06-1.46a67 67 0 0 0-.47-4.24q-.12-.95-.23-1.56-.1-.62.27-1.02.36-.41.35.22-.02.64.02 1.42.03.78.24 2.9m-1.92-1.6q.4-.62.47.16t.27 2.3q.45.2.12.33-.33.12-1.07.22-.75.1-1.04.33-.31.23-.27-.06t.08-.5-.12-1.16a4 4 0 0 0-.3-1.17q-.15-.2 0-.53.13-.34.34-.6.2-.26.43.06.22.33 1.09.62m.4 2.46q-.15-1.07-.32-1.97-.7-.12-1-.14t-.4.14 0 .56l.3 1.45q.81 0 1.43-.04M107.82-1240.64q.16-.24.55-.22t.55.3.16.41-.16.41q-.17.3-.57.3-.4.02-.55-.24a1 1 0 0 1-.14-.47q0-.24.16-.49m-2.47 0q.15-.29.57-.28.43 0 .57.32.14.33.14.45 0 .21-.18.47t-.57.25q-.39-.03-.53-.31a1 1 0 0 1-.14-.45q0-.16.14-.45"/><path fill="none" stroke="#000" stroke-miterlimit="10" stroke-width=".5" d="M110.67-1248.59v-84"/><path d="M106.53-1371.06a1 1 0 0 1 .06-.64q.15-.3.29-.02.14.29.3 1.36.62.03 1.24.04-.17-1.49-.27-2.07-.1-.6.16-.97.27-.37.37-.33.1.05.08.56a20 20 0 0 0 .07 2.75q.07 1.13.22 1.86l.19 1q.03.27-.25.66-.3.39-.29-.02 0-.45-.08-1.29t-.2-1.66h-1.15l.06.8q.02.34-.14.63-.17.3-.27-.36t-.19-1.07q-1.6 0-2.09.02-.49.01-.84.04a1 1 0 0 0-.55.19q-.2.15-.1-.3t.2-.59q.1-.14.35-.06t1 .13q.76.03 1.95.04zm-3.7 3.6q.83.05 1.6.15t1.59.33q.8.22 1.68.7.88.46 1.35 1.16t.08.35q-.4-.34-1.1-.82a10.11 10.11 0 0 0-4.18-1.23 3 3 0 0 0-1.42.1q-.33.17-.25-.14.08-.3.17-.47.08-.15.04-.9a13 13 0 0 0-.31-1.97q-.27-1.23-.3-1.48a1 1 0 0 1 .12-.55q.16-.3.28-.04t.25.9q.12.63.25 1.58.11.94.16 2.34m2.35-4.01q0-.41.18-.86t.53-.41q.35.03.1.47t-.69.92q.32.25.57.66.25.4-.28 0-.54-.41-1.2-.7a2.4 2.4 0 0 0-.98-.27q-.33.02-.06-.43t.41-.3.56.37q.4.21.86.55m.04 2.95q.2-.7.39-.82.17-.12.49 0 .3.12-.06.41l-.66.53q.74.53.9.89.16.34-.22.02a5 5 0 0 0-1.17-.66q-.78-.32-1-.27-.23.06-.05-.4.19-.48.4-.31l.4.28q.2.13.58.33m-3.78-1.52q-.44.66-.65.84t-.14-.65q.05-.85.63-.86.57-.03.16.67m3.08-7.01q.45-.63.94-.55.5.05 1.7.08 1.2.01 1.83.16.6.14.1.41-.51.27-.92.13a4 4 0 0 0-1-.19q-.6-.04-1.38-.04t-1.02.12q.53.45.92.86.39.42.6.84.2.44-.35-.1a9 9 0 0 0-3.26-2q-1.07-.42-1.4-.34-.34.09-.22-.18.1-.27.32-.53.23-.27.35-.13t.78.45q.65.3 2.01 1.01m3.16-3.9q-.21-1.64-.33-2.3-.12-.64.2-1 .33-.34.4-.24.05.1.06.88a20 20 0 0 0 .4 3.98q.21.93.17 1.27t-.25.53-.22-.35-.4-2.44q-.52-.3-1.47-.63-.94-.36-1.27-.25t-.24-.2q.07-.31.28-.64.2-.33.37-.1t.9.65zm-3.77.58q-.25-.99-.41-1.54-.17-.55.04-.88.2-.33.34.04t.35 1.33.25 1.46-.1.76-.19.02zm-2.42-.29q.07-.49.4-.74t.62-.08q.3.16-.08.68-.37.51-.72.86t-.35.06q0-.3.13-.78m4.75 1.35q-.42.13-.55.09-.15-.05.08-.41.23-.37.55-.48a1 1 0 0 1 .66.03q.33.12-.02.36t-.72.41m-1.56-10.74q.29-.34.44-.12.13.2.45.45.3.24.3.08a6 6 0 0 0-.28-1.54.6.6 0 0 1 0-.51q.11-.25.37-.6.25-.34.4-.16t.56.29l1.19.26q.8.16 1.19.45t.6.64-.13.41-.74.66-.22-.05.14-.88q-.05-.24-.45-.4a7 7 0 0 0-1.31-.33q-.9-.17-1.05.04-.15.2-.02 1.04.12.85.39 1.3t-.08.49q-.36.04-.62-.41-.27-.45-1.04-.62.24 1.8.34 2.36.1.54-.22 1.02-.33.47-.33-.14 0-.65-.06-1.46a67 67 0 0 0-.47-4.24q-.12-.95-.23-1.56-.1-.62.27-1.02.36-.41.35.22-.02.64.02 1.42.03.78.24 2.9m-1.92-1.6q.4-.62.47.16t.27 2.3q.45.2.12.33-.33.12-1.07.22-.75.1-1.04.33-.31.23-.27-.06t.08-.5-.12-1.16a4 4 0 0 0-.3-1.17q-.15-.2 0-.53.13-.34.34-.6.2-.26.43.06.22.33 1.09.62m.4 2.46q-.15-1.07-.32-1.97-.7-.12-1-.14t-.4.14 0 .56l.3 1.45q.81 0 1.43-.04M107.82-1398.14q.16-.24.55-.22t.55.3.16.41-.16.41q-.17.3-.57.3-.4.02-.55-.24a1 1 0 0 1-.14-.47q0-.24.16-.49m-2.47 0q.15-.29.57-.28.43 0 .57.32.14.33.14.45 0 .21-.18.47t-.57.24-.53-.3a1 1 0 0 1-.14-.45q0-.16.14-.45"/><path fill="none" stroke="#000" stroke-miterlimit="10" stroke-width=".5" d="M110.67-1406.1v-84"/><path d="m260.13-48.93-.52.87 1.08.25q.31-.35.63-1.12zm-1.43-4.73q.66.42.8.63.15.2.14.31 0 .18-.12.35-.13.17-.2.18-.1 0-.2-.35-.14-.5-.53-1.05zm3-.1.64.42a1 1 0 0 0-.5.34q-.24.29-.8.84l-.1-.07q.66-1.04.77-1.53m-1.57-.39.77.35-.28.25v1.6h.88l.38-.38.6.6h-1.86v.3q.8.19 1 .34t.2.4q0 .1-.04.27-.04.15-.1.16-.09 0-.25-.25-.29-.38-.8-.74v1.1l-.43.27.5.21q-.2.07-.46.53h1.08l.25-.32.52.46-.31.17a5 5 0 0 1-.63 1.12 2 2 0 0 1 .75.3q.19.15.2.4 0 .24-.11.25-.1 0-.25-.14-.39-.29-.87-.5a6.5 6.5 0 0 1-2.9 1.3l-.04-.1a7 7 0 0 0 2.52-1.37 7 7 0 0 0-1.37-.35q.15-.2.56-1.01h-.45q-.46 0-.84.1l-.32-.31h1.68q.15-.36.28-.84l.18.07v-1.44a7 7 0 0 1-2.17 1.68l-.07-.1a7 7 0 0 0 1.96-1.97h-.63q-.46 0-.84.1l-.32-.3h2.07q0-1.27-.04-2.2m2.87 2.41q.17 2.03.84 3.4.55-1.2.7-3.4zm.18-2.4.8.45q-.28.1-.42.41-.15.32-.52 1.33h2l.41-.42.63.63h-1.01a10 10 0 0 1-.91 3.86 3.4 3.4 0 0 0 1.89 1.22v.14q-.67.11-.7.43-.9-.64-1.5-1.44-1.17 1.12-2.77 1.65l-.07-.1a7 7 0 0 0 2.55-1.93 10 10 0 0 1-.7-3.61q-.36.9-1.01 1.71l-.1-.07q.83-1.4 1.43-4.27m5.25.3q1.13.73 1.2 1.1.05.38-.11.57-.18.19-.25.2-.14 0-.24-.4a5 5 0 0 0-.7-1.4zm1.86-.18q1 .78 1.05 1.14.03.37-.14.55-.18.17-.25.18-.18 0-.24-.43-.1-.6-.53-1.37zm3.29 3.51-.1-.07.55-.98h-5.98q.07.45.03.75-.03.3-.26.37t-.3.07a.4.4 0 0 1-.19-.05q-.09-.06-.09-.09 0-.14.18-.38.27-.4.42-1.3h.17l.04.42H272q.66-1.3.95-2.32l.8.53-.35.14q-.6.8-1.19 1.65H274l.35-.42.63.7q-.6.06-1.4.98m-4.17 3.6q.87.15 1.16.13.28-.03.28-.37v-1.36h-2.66q-.46 0-.84.1l-.32-.31h3.82q0-.32-.04-.81l.39.2 1.22-1.01h-2.9q-.46-.01-.84.1l-.32-.31h4.03l.38-.35.6.7q-.29-.04-.75.2-.48.25-1.32.78l.28.18-.24.14v.18h2.27l.56-.56.77.77h-3.6v1.7q0 .53-.8.85.02-.4-1.13-.77zm7.25-6.61.1-.07q.5.35.81.68t.25.61q-.07.28-.21.39l-.18.1q-.15 0-.2-.42a5 5 0 0 0-.57-1.3m1.09 6.3 1.22-1.37.1.1-.87 1.34q-.28.41-.52.9l-.56-.59a.7.7 0 0 0 .14-.56v-3.04h-.42q-.29 0-.67.1l-.31-.31h1.36l.21-.35.63.42-.31.24zm5.77.31.28-1.43h.14q-.07.8-.07 1.26t.14.9q.07.22-.03.22-.15 0-.79-.5a4 4 0 0 1-1.17-1.81 11 11 0 0 1-.63-3.47h-2.07q-.28 0-.66.1l-.32-.3h3.01q-.07-1.1-.07-2.1l.84.45-.31.24q0 .8.03 1.4h1.2l.45-.49.63.7h-2.24q.1 3.5 1.64 4.83m-1.19-6.9q.6.25.9.46.29.21.26.44a1 1 0 0 1-.14.37q-.1.13-.14.14-.1 0-.25-.35-.2-.45-.7-.95zm-2.03 6.12 1.33-.38.04.14q-1.23.49-2.45 1.08l-.25.28-.42-.63q.84-.2 1.26-.35v-2.52h-.31q-.29 0-.67.1l-.31-.3h2l.41-.43.53.63h-1.16zm6.1-5.62v1h1.64v-1zm0 1.21v.99h1.64v-.99zm2.1-1.14q0 1.6.03 2.4l-.49.25v-.31h-1.64v.2l-.5.18a38 38 0 0 0 0-3.28l.5.28h1.57l.25-.35.52.42zm-2.45 5.1q.38.5.98.88v-2.67h-.74a3 3 0 0 0-.84.1l-.31-.3h3.08l.42-.43.56.63h-1.72v1.23h.67l.38-.39.53.6h-1.58v1.37q.7.31 2.4.33t3.13-.15v.14q-.66.23-.66.56-2.99.02-3.87-.14a5 5 0 0 1-1.42-.47q-.52-.3-1.08-1.07a6 6 0 0 1-1.02 1.92l-.1-.07q.42-.74.64-1.74t.27-1.77l.7.35q-.28.11-.42 1.09m6.3-2.17q0 .28.03 1.09l-.49.24v-3.08h-2.03v2.9l-.49.29a42 42 0 0 0 0-3.68l.5.28h.45q.14-.52.17-1h-.42q-.45 0-.84.1l-.31-.31h3.04l.42-.43.56.64h-1.85q-.15.2-.6 1h1.33l.25-.31.52.38-.24.21zm-1.79-1.22.77.38-.28.25q0 1.46-.17 2.05-.18.57-.69 1.07-.5.48-1.48.84l-.07-.1q1.05-.58 1.45-1.16.4-.6.46-1.46a22 22 0 0 0 .01-1.87m.42 2.72.07-.1q1.36.63 1.49.84t.12.35q0 .15-.07.34t-.14.2q-.08-.01-.24-.36-.29-.5-1.23-1.27m5.26-3.96q.56.27.64.47.1.18.1.26 0 .18-.15.3t-.2.12q-.12 0-.11-.1a2.5 2.5 0 0 0-.5-1.05h-.41l-.62.6q-.34.3-.82.62l-.07-.14q.48-.45.95-1.1.45-.65.66-1.32l.7.46q-.21.11-.66.67h1.5l.42-.42.6.63zm2.8-1.3.7.45q-.25.07-.67.64h1.79l.42-.42.6.63h-2.25q.46.24.58.4t.12.26q0 .17-.14.33-.14.15-.17.16-.08 0-.14-.2-.08-.18-.14-.4a3 3 0 0 0-.32-.55h-.49l-.49.54q-.2.22-.7.61l-.1-.1a6 6 0 0 0 1.4-2.35m-3.96 5.1q.21-.63.39-1.54l.52.35h1.9v-1.04h-1.93q-.29 0-.67.1l-.31-.31h5.21l.35-.35.5.49-.29.17q0 1.02.04 1.33l-.5.2v-.38h-1.95v1.09h2.55l.35-.35.5.49-.32.2-.21 1.18q-.07.3-.2.46a1 1 0 0 1-.3.24q-.16.09-.48.16 0-.46-.91-.84v-.14q.9.24 1.1.23a.3.3 0 0 0 .28-.21q.08-.2.23-1.21h-2.6v1.71q0 .42.04.88l-.52.18q.03-.67.03-1.61v-1.12a6 6 0 0 1-1.75 1.57q-1.02.6-2.24.98l-.03-.17a10 10 0 0 0 1.87-.95q.93-.6 1.56-1.47h-1.75l-.25.31-.52-.42zm3.26-2.23v1.04h1.96v-1.04zm-2.45 1.25q-.14.39-.32 1.09h2.31v-1.09zM307.92-52.8q-.54.57-1.62.57v.35q.7 0 1.16-.21v4.55q0 .24-.12.32-.12.06-.67.07h-.31v.35q.33-.03 1.46-.03t1.45.03v-.35h-.31q-.56 0-.67-.07t-.11-.32v-4.98c0-.22-.02-.27-.26-.27M313.67-53.52h6.23l.56-.53.73.74h-3.46q-.64.9-.88 1.4h2.38l.28-.38.6.45-.32.25v1.71q0 .87.04 1.37l-.53.28v-3.47h-3.81v3.36l-.53.32a49 49 0 0 0 0-4.2l.53.31h1.15q.2-.75.28-1.4h-2.1q-.45 0-.84.1zm3.43 2.27.84.38-.28.28a8 8 0 0 1-.35 2.3 3 3 0 0 1-1.07 1.4q-.75.53-2.64.89l-.04-.14a6 6 0 0 0 2.54-1.21q.71-.72.87-1.72.15-1 .13-2.18m.6 2.88q2.01.66 2.58 1.02.56.36.5.79-.09.41-.22.42-.07 0-.17-.1a5 5 0 0 0-.83-.8q-.53-.44-1.94-1.23zm11.43 1.29q.53.42.47.49-.07.06-.67-.33A5 5 0 0 1 327.8-48a3 3 0 0 1-.63-1.75q-.09-1.08.44-1.94a4.5 4.5 0 0 1 1.96-1.78q.01.08-.47.47-.48.42-.96 1.16a3.4 3.4 0 0 0-.46 1.88q0 1.16.45 1.8t1 1.07m5.2-4.86v2.66h2.17v-2.66zm-.5-.2q0-1.06-.03-1.8l.77.35-.24.25v1.2h2.17q0-1.42-.04-1.87l.77.39-.24.2v1.27h1.15l.46-.45.66.66H337v2.66h1.26l.56-.56.77.77h-7.1q-.48 0-.85.1l-.31-.31h2.52v-2.66h-.91q-.46 0-.84.1l-.32-.3zm.4 3.25.73.63-.39.14q-1.1.97-1.71 1.41-.64.44-1.37.83l-.07-.14a11 11 0 0 0 1.94-1.67q.72-.83.86-1.2m1.85.41.03-.14q2.37 1.05 2.63 1.4.23.36.24.6 0 .15-.07.3-.07.16-.1.16-.18 0-.63-.6a8 8 0 0 0-2.1-1.72M347.3-51.94c0-1.16-1.6-1.16-1.94-1.16-1.25 0-1.79.57-1.79 1.14 0 .44.34.58.56.58.29 0 .57-.2.57-.57 0-.42-.39-.54-.4-.55.23-.17.6-.28 1.01-.28.83 0 .84.36.84.78 0 .4-.07.54-.25.72a2.8 2.8 0 0 0-.81 1.86v.34c0 .2 0 .25.2.25.22 0 .22-.06.22-.27v-.25c0-.92.84-1.47 1.18-1.67.18-.1.6-.35.6-.92M346-47.5a.7.7 0 1 0-1.41 0 .7.7 0 0 0 1.4 0m6.19-4.44c0-1.16-1.6-1.16-1.94-1.16-1.25 0-1.79.57-1.79 1.14 0 .44.33.58.56.58.29 0 .57-.2.57-.57 0-.42-.4-.54-.4-.55.22-.17.6-.28 1-.28.84 0 .84.36.84.78 0 .4-.07.54-.25.72a2.8 2.8 0 0 0-.8 1.86v.34c0 .2 0 .25.2.25.22 0 .22-.06.22-.27v-.25c0-.92.83-1.47 1.17-1.67.18-.1.62-.35.62-.92m-1.3 4.44a.7.7 0 1 0-1.41 0 .7.7 0 0 0 1.4 0M356.43-53.52h6.23l.56-.53.74.74h-3.47q-.62.9-.87 1.4H362l.28-.38.6.45-.32.25v1.71q0 .87.03 1.37l-.52.28v-3.47h-3.82v3.36l-.52.32a49 49 0 0 0 0-4.2l.52.31h1.16q.2-.75.28-1.4h-2.1q-.45 0-.84.1zm3.43 2.27.84.38-.28.28a8 8 0 0 1-.35 2.3 3 3 0 0 1-1.06 1.4q-.76.53-2.65.89l-.03-.14a6 6 0 0 0 2.54-1.21q.71-.72.87-1.72t.12-2.18m.6 2.88q2.03.66 2.59 1.02t.49.79-.21.42q-.07 0-.18-.1a5 5 0 0 0-.82-.8q-.53-.44-1.94-1.23zm7.58.33q-.58.73-1.26 1.14t-.7.3q-.01-.07.5-.46.5-.36 1.03-1.17.54-.83.47-1.9a4 4 0 0 0-.54-1.8 6 6 0 0 0-.95-1.14q-.53-.42-.5-.51 0-.1.65.35.65.43 1.28 1.3.62.84.61 2t-.6 1.89"/></svg>